/* XPM */
static char *_f77436487fa404ed5eb6f6cf4f570b8CmMYWPXU94YFezZq[] = {
/* columns rows colors chars-per-pixel */
"60 60 6 1 ",
"  c black",
". c #2A594F",
"X c #3B7D4F",
"o c #63AB3F",
"O c #A4C443",
"+ c white",
/* pixels */
"...............................................       ......",
".oooooo.oooo.oooooo.oooooo.oo.ooooooo.ooooooo. +++++++    o.",
".oooooooooooooooooooooooooooooooooooooooooooooo   ++++++++ .",
"o.ooooooooooooooooooooooooooooooooooooooooooooooo +++++++++ ",
".oooooooooooooooooooooooooooooooooooooooooooooooo ++++++   .",
".ooooooooooooooooooooooooooooooooooooooooooooooo +++++++  o.",
"o.oooooooooooooooooooooooooooooooooooooooooooooo +++++++++ o",
".oooooooooooooooooooooooooooooooooooooooooooooo +++++++++++ ",
".ooooooooooooooooooooooooooooooooooooooooooooo +++++++++   .",
"o.oooooooooooooooooooooooooooooooooooooooooo  ++++++++++ o.o",
".oooooooooooooooooooooooooooooooooooooooooo ++++++++++++ oo.",
".ooooooooooooooooooooooooooooooooooooooooooo +++++++++++  o.",
"o.ooooooooooooooooooooooooooooooooooooooooo ++++++ +++++++ o",
".oooooooooooooooooooooooooooooooooooooooooo +++ +++ +++++++ ",
".oooooooooooooooooooooooooooooooooooooooooo +++++ + ++++   .",
"o.ooooooooooooooooooooooooooooooooooooooooo +++++   ++++  .o",
".ooooooooooooooooooooooooooooooooooooooooooo ++ +++ ++++++ .",
".oooooooooooooooooooooooooooooooooooooooooo ++++++ ++++++++ ",
"o.oooooooooooooooooooooooooooooooooooooooooo   ++++++++    o",
".oooooooooooooooooooooooooooooooooooooooooooooo        oooo.",
".oooooooooooooooooooooooooooooooooooooooooooooooooooooooooo.",
"o.oooooooooooooooooooooooooooooooooooooooooooooooooooooooo.o",
".oooooooooooooooooooooooooooooooooooooooooooooooooooooooooo.",
".oooooooooooooooooooooooooooooooooooooooooooooooooooooooooo.",
"o.oooooooooooooooooooooooooooooooooooooooooooooooooooooooo.o",
".oooooooooooooooooooooooooooooooooooooooooooooooooooooooooo.",
".oooooooooooooooooooooooooooooooooooooooooooooooooooooooooo.",
"o.oooooooooooooooooooooooooooooooooooooooooooooooooooooooo.o",
".oooooooooooooooooooooooooooooooooooooooooooooooooooooooooo.",
".oooooooooooooooooooooooooooooooooooooooooooooooooooooooooo.",
"o.oooooooooooooooooooooooooooooooooooooooooooooooooooooooo.o",
".oooooooooooooooooooooooooooooooooooooooooooooooooooooooooo.",
".oooooooooooooooooooooooooooooooooooooooooooooooooooooooooo.",
"o.oooooooooooooooooooooooooooooooooooooooooooooooooooooooo.o",
".oooooooooooooooooooooooooooooooooooooooooooooooooooooooooo.",
".oooooooooooooooooooooooooooooooooooooooooooooooooooooooooo.",
"o.oooooooooooooooooooooooooooooooooooooooooooooooooooooooo.o",
".oooooooooooooooooooooooooooooooooooooooooooooooooooooooooo.",
".oooooooooooooooooooooooooooooooooooooooooooooooooooooooooo.",
"o.oooooooooooooooooooooooooooooooooooooooooooooooooooooooo.o",
".oooooooooooooooooooooooooooooooooooooooooooooooooooooooooo.",
".oooooooooooooooooooooooooooooooooooooooooooooooooooooooooo.",
"o.oooooooooooooooooooooooooooooooooooooooooooooooooooooooo.o",
".oooooooooooooooooooooooooooooooooooooooooooooooooooooooooo.",
".oooooooooooooooooooooooooooooooooooooooooooooooooooooooooo.",
"o.oooooooooooooooooooooooooooooooooooooooooooooooooooooooo.o",
".oooooooooooooooooooooooooooooooooooooooooooooooooooooooooo.",
".oooooooooooooooooooooooooooooooooooooooooooooooooooooooooo.",
"o.oooooooooooooooooooooooooooooooooooooooooooooooooooooooo.o",
".oooooooooooooooooooooooooooooooooooooooooooooooooooooooooo.",
".oooooooooooooooooooooooooooooooooooooooooooooooooooooooooo.",
"o.oooooooooooooooooooooooooooooooooooooooooooooooooooooooo.o",
".oooooooooooooooooooooooooooooooooooooooooooooooooooooooooo.",
".oooooooooooooooooooooooooooooooooooooooooooooooooooooooooo.",
"o.oooooooooooooooooooooooooooooooooooooooooooooooooooooooo.o",
".oooooooooooooooooooooooooooooooooooooooooooooooooooooooooo.",
".oooooooooooooooooooooooooooooooooooooooooooooooooooooooooo.",
".OOooOOooOOooOOooOOooOOooOOooOOooOOooOOooOOooOOooOOooOOooOO.",
".XXOOXXOOXXOOXXOOXXOOXXOOXXOOXXOOXXOOXXOOXXOOXXOOXXOOXXOOXX.",
".XXXXXXXXXXXXXXXXXXXXXXXXXXXXXXXXXXXXXXXXXXXXXXXXXXXXXXXXXX."
};
