/* XPM */
static char *result[] = {
/* columns rows colors chars-per-pixel */
"60 60 6 1 ",
"  c black",
". c #2A594F",
"X c #3B7D4F",
"o c #63AB3F",
"O c #A4C443",
"+ c white",
/* pixels */
"....................................... ... ..... ... ......",
".oooooo.oooo.oooooo.oooooo.oo.ooooooo. + o + .oo + o + oooo.",
".oooooooooooooooooooooooooooooooooooo ++  ++ oo ++  ++ oooo.",
"o.ooooooooooooooooooooooooooooooooooo ++  ++    ++  ++ ooo.o",
".oooooooooooooooooooooooooooooooooooo ++++++++++++++++ oooo.",
".oooooooooooooooooooooooooooooooooooo +++++++++++++++++ ooo.",
"o.oooooooooooooooooooooooooooooooooo ++++++++++++++++++ oo.o",
".ooooooooooooooooooooooooooooooooooo ++++++++++++++++++ ooo.",
".ooooooooooooooooooooooooooooooooooo ++++++++++++    ++ ooo.",
"o.oooooooooooooooooooooooooooooooooo +++++++++++ ++ + + oo.o",
".ooooooooooooooooooooooooooooooooooo +   +++++++++  +++ ooo.",
".ooooooooooooooooooooooooooooooooooo + oo  ++++++++++++ ooo.",
"o.oooooooooooooooooooooooooooooooooo + oooo +++++ ++ ++ oo.o",
".oooooooooooooooooooooooooooooooooooo oooooo +++++++++ oooo.",
".oooooooooooooooooooooooooooooooooooooooooooo ++++++++ oooo.",
"o.ooooooooooooooooooooooooooooooooooooooooooo + ++++ + ooo.o",
".ooooooooooooooooooooooooooooooooooooooooooooo o    o ooooo.",
".oooooooooooooooooooooooooooooooooooooooooooooooooooooooooo.",
"o.oooooooooooooooooooooooooooooooooooooooooooooooooooooooo.o",
".oooooooooooooooooooooooooooooooooooooooooooooooooooooooooo.",
".oooooooooooooooooooooooooooooooooooooooooooooooooooooooooo.",
"o.oooooooooooooooooooooooooooooooooooooooooooooooooooooooo.o",
".oooooooooooooooooooooooooooooooooooooooooooooooooooooooooo.",
".oooooooooooooooooooooooooooooooooooooooooooooooooooooooooo.",
"o.oooooooooooooooooooooooooooooooooooooooooooooooooooooooo.o",
".oooooooooooooooooooooooooooooooooooooooooooooooooooooooooo.",
".oooooooooooooooooooooooooooooooooooooooooooooooooooooooooo.",
"o.oooooooooooooooooooooooooooooooooooooooooooooooooooooooo.o",
".oooooooooooooooooooooooooooooooooooooooooooooooooooooooooo.",
".oooooooooooooooooooooooooooooooooooooooooooooooooooooooooo.",
"o.oooooooooooooooooooooooooooooooooooooooooooooooooooooooo.o",
".oooooooooooooooooooooooooooooooooooooooooooooooooooooooooo.",
".oooooooooooooooooooooooooooooooooooooooooooooooooooooooooo.",
"o.oooooooooooooooooooooooooooooooooooooooooooooooooooooooo.o",
".oooooooooooooooooooooooooooooooooooooooooooooooooooooooooo.",
".oooooooooooooooooooooooooooooooooooooooooooooooooooooooooo.",
"o.oooooooooooooooooooooooooooooooooooooooooooooooooooooooo.o",
".oooooooooooooooooooooooooooooooooooooooooooooooooooooooooo.",
".oooooooooooooooooooooooooooooooooooooooooooooooooooooooooo.",
"o.oooooooooooooooooooooooooooooooooooooooooooooooooooooooo.o",
".oooooooooooooooooooooooooooooooooooooooooooooooooooooooooo.",
".oooooooooooooooooooooooooooooooooooooooooooooooooooooooooo.",
"o.oooooooooooooooooooooooooooooooooooooooooooooooooooooooo.o",
".oooooooooooooooooooooooooooooooooooooooooooooooooooooooooo.",
".oooooooooooooooooooooooooooooooooooooooooooooooooooooooooo.",
"o.oooooooooooooooooooooooooooooooooooooooooooooooooooooooo.o",
".oooooooooooooooooooooooooooooooooooooooooooooooooooooooooo.",
".oooooooooooooooooooooooooooooooooooooooooooooooooooooooooo.",
"o.oooooooooooooooooooooooooooooooooooooooooooooooooooooooo.o",
".oooooooooooooooooooooooooooooooooooooooooooooooooooooooooo.",
".oooooooooooooooooooooooooooooooooooooooooooooooooooooooooo.",
"o.oooooooooooooooooooooooooooooooooooooooooooooooooooooooo.o",
".oooooooooooooooooooooooooooooooooooooooooooooooooooooooooo.",
".oooooooooooooooooooooooooooooooooooooooooooooooooooooooooo.",
"o.oooooooooooooooooooooooooooooooooooooooooooooooooooooooo.o",
".oooooooooooooooooooooooooooooooooooooooooooooooooooooooooo.",
".oooooooooooooooooooooooooooooooooooooooooooooooooooooooooo.",
".OOooOOooOOooOOooOOooOOooOOooOOooOOooOOooOOooOOooOOooOOooOO.",
".XXOOXXOOXXOOXXOOXXOOXXOOXXOOXXOOXXOOXXOOXXOOXXOOXXOOXXOOXX.",
".XXXXXXXXXXXXXXXXXXXXXXXXXXXXXXXXXXXXXXXXXXXXXXXXXXXXXXXXXX."
};
