/* XPM */
static char *f7795b67435644968b899a7d60b03c27496GAueT3zuXq6Lg[] = {
/* columns rows colors chars-per-pixel */
"60 60 6 1 ",
"  c black",
". c #2A594F",
"X c #3B7D4F",
"o c #63AB3F",
"O c #A4C443",
"+ c white",
/* pixels */
"............................................................",
".oooooo.oooo.oooooo.oooooo.oo.ooooooo.ooooooo.oooooo.oooooo.",
".oooooooooooooooooooooooooooooooooooooooooooooooooooooooooo.",
"o.oooooooooooooooooooooooooooooooooooooooooooooooooooooooo.o",
".oooooooooooooooooooooooooooooooooooooooooooooooooooooooooo.",
".oooooooooooooooooooooooooooooooooooooooooooooooooooooooooo.",
"o.oooooooooooooooooooooooooooooooooooooooooooooooooooooooo.o",
".oooooooooooooooooooooooooooooooooooooooooooooooooooooooooo.",
".oooooooooooooooooooooooooooooooooooooooooooooooooooooooooo.",
"o.oooooooooooooooooooooooooooooooooooooooooooooooooooooooo.o",
".oooooooooooooooooooooooooooooooooooooooooooooooooooooooooo.",
".oooooooooooooooooooooooooooooooooooooooooooooooooooooooooo.",
"o.oooooooooooooooooooooooooooooooooooooooooooooooooooooooo.o",
".oooooooooooooooooooooooooooooooooooooooooooooooooooooooooo.",
".oooooooooooooooooooooooooooooooooooooooooooooooooooooooooo.",
"o.oooooooooooooooooooooooooooooooooooooooooooooooooooooooo.o",
".oooooooooooooooooooooooooooooooooooooooooooooooooooooooooo.",
".oooooooooooooooooooooooooooooooooooooooooooooooooooooooooo.",
"o.oooooooooooooooooooooooooooooooooooooooooooooooooooooooo.o",
".oooooooooooooooooooooooooooooooooooooooooooooooooooooooooo.",
".oooooooooooooooooooooooooooooooooooooooooooooooooooooooooo.",
"o.oooooooooooooooooooooooooooooooooooooooooooooooooooooooo.o",
".oooooooooooooooooooooooooooooooooooooooooooooooooooooooooo.",
".oooooooooooooooooooooooooooooooooooooooooooooooooooooooooo.",
"o.oooooooooooooooooooooooooooooooooooooooooooooooooooooooo.o",
".oooooooooooooooooooooooooooooooooooooooooooooooooooooooooo.",
".oooooooooooooooooooooooooooooooooooooooooooooooooooooooooo.",
"o.oooooooooooooooooooooooooooooooooooooooooooooooooooooooo.o",
".oooooooooooooooooooooooooooooooooooooooooooooooooooooooooo.",
".oooooooooooooooooooooooooooooooooooooooooooooooooooooooooo.",
"o.oooooooooooooooooooooooooooooooooooooooooooooooooooooooo.o",
".oooooooooooooooooooooooooooooooooooooooooooooooooooooooooo.",
".oooooooooooooooooooooooooooooooooooooooooooooooooooooooooo.",
"o.oooooooooooooooooooooooooooooooooooooooooooooooooooooooo.o",
".oooooooooooooooooooooooooooooooooooooooooooooooooooooooooo.",
".oooooooooooooooooooooooooooooooooooooooooooooooooooooooooo.",
"o.oooooooooooooooooooooooooooooooooooooooooooooooooooooooo.o",
".oooooooooooooooooooooooooooooooooooooooooooooooooooooooooo.",
".oooooooooooooooooooooooooooooooooooooooooooooooooooooooooo.",
"o.oooooooooooooooooooooooooooooooooooooooooooooooooooooooo.o",
".oooooooooooooooooooooooooooooooooooooooooooooooooooooooooo.",
".oooooooooooooooooooooooooooooooooooooooooooooooooooooooooo.",
"o.oooooooooooooooooooooooooooooooooooooooooooooooooooooooo.o",
".ooooooooooooooooooooooooooooooooooooooo o    o ooooooooooo.",
".oooooooooooooooooooooooooooooooooooooo + ++++ + oooooooooo.",
"o.ooooooooooooooooooooooooooooooooooooo ++++++++ ooooooooo.o",
".oooooooooooooooooooooooooooooooooooooo +++++++++ oooooo oo.",
".ooooooooooooooooooooooooooooooooooooo ++ ++ +++++ oooo + o.",
"o.oooooooooooooooooooooooooooooooooooo ++++++++++++  oo + .o",
".ooooooooooooooooooooooooooooooooooooo +++  +++++++++   + o.",
".ooooooooooooooooooooooooooooooooooooo + + ++ +++++++++++ o.",
"o.oooooooooooooooooooooooooooooooooooo ++    ++++++++++++ .o",
".ooooooooooooooooooooooooooooooooooooo ++++++++++++++++++ o.",
".ooooooooooooooooooooooooooooooooooooo ++++++++++++++++++ o.",
"o.oooooooooooooooooooooooooooooooooooo +++++++++++++++++ o.o",
".oooooooooooooooooooooooooooooooooooooo ++++++++++++++++ oo.",
".oooooooooooooooooooooooooooooooooooooo ++  ++    ++  ++ oo.",
".OOooOOooOOooOOooOOooOOooOOooOOooOOooOO ++  ++ oo ++  ++ OO.",
".XXOOXXOOXXOOXXOOXXOOXXOOXXOOXXOOXXOOXX + X + XOO + O + OXX.",
".XXXXXXXXXXXXXXXXXXXXXXXXXXXXXXXXXXXXXXX XXX XXXXX XXX XXXX."
};
