/* XPM */
static char *_ae2de7fc6e649e9f80f8ff7a272284ap7sgrLHpoGzwlr8J[] = {
/* columns rows colors chars-per-pixel */
"60 60 6 1 ",
"  c black",
". c #2A594F",
"X c #3B7D4F",
"o c #63AB3F",
"O c #A4C443",
"+ c white",
/* pixels */
".... ... ..... ... .........................................",
".oo + o + oo. + o + oooooo.oo.ooooooo.ooooooo.oooooo.oooooo.",
".o ++  ++ oo ++  ++ ooooooooooooooooooooooooooooooooooooooo.",
"o. ++  ++    ++  ++ oooooooooooooooooooooooooooooooooooooo.o",
".o ++++++++++++++++ ooooooooooooooooooooooooooooooooooooooo.",
".o +++++++++++++++++ oooooooooooooooooooooooooooooooooooooo.",
"o ++++++++++++++++++ ooooooooooooooooooooooooooooooooooooo.o",
". ++++++++++++++++++ oooooooooooooooooooooooooooooooooooooo.",
". ++++++++++++    ++ oooooooooooooooooooooooooooooooooooooo.",
"o +++++++++++ ++ + + ooooooooooooooooooooooooooooooooooooo.o",
". +   +++++++++  +++ oooooooooooooooooooooooooooooooooooooo.",
". + oo  ++++++++++++ oooooooooooooooooooooooooooooooooooooo.",
"o + oooo +++++ ++ ++ ooooooooooooooooooooooooooooooooooooo.o",
".o oooooo +++++++++ ooooooooooooooooooooooooooooooooooooooo.",
".ooooooooo ++++++++ ooooooooooooooooooooooooooooooooooooooo.",
"o.oooooooo + ++++ + oooooooooooooooooooooooooooooooooooooo.o",
".oooooooooo o    o oooooooooooooooooooooooooooooooooooooooo.",
".oooooooooooooooooooooooooooooooooooooooooooooooooooooooooo.",
"o.oooooooooooooooooooooooooooooooooooooooooooooooooooooooo.o",
".oooooooooooooooooooooooooooooooooooooooooooooooooooooooooo.",
".oooooooooooooooooooooooooooooooooooooooooooooooooooooooooo.",
"o.oooooooooooooooooooooooooooooooooooooooooooooooooooooooo.o",
".oooooooooooooooooooooooooooooooooooooooooooooooooooooooooo.",
".oooooooooooooooooooooooooooooooooooooooooooooooooooooooooo.",
"o.oooooooooooooooooooooooooooooooooooooooooooooooooooooooo.o",
".oooooooooooooooooooooooooooooooooooooooooooooooooooooooooo.",
".oooooooooooooooooooooooooooooooooooooooooooooooooooooooooo.",
"o.oooooooooooooooooooooooooooooooooooooooooooooooooooooooo.o",
".oooooooooooooooooooooooooooooooooooooooooooooooooooooooooo.",
".oooooooooooooooooooooooooooooooooooooooooooooooooooooooooo.",
"o.oooooooooooooooooooooooooooooooooooooooooooooooooooooooo.o",
".oooooooooooooooooooooooooooooooooooooooooooooooooooooooooo.",
".oooooooooooooooooooooooooooooooooooooooooooooooooooooooooo.",
"o.oooooooooooooooooooooooooooooooooooooooooooooooooooooooo.o",
".oooooooooooooooooooooooooooooooooooooooooooooooooooooooooo.",
".oooooooooooooooooooooooooooooooooooooooooooooooooooooooooo.",
"o.oooooooooooooooooooooooooooooooooooooooooooooooooooooooo.o",
".oooooooooooooooooooooooooooooooooooooooooooooooooooooooooo.",
".oooooooooooooooooooooooooooooooooooooooooooooooooooooooooo.",
"o.oooooooooooooooooooooooooooooooooooooooooooooooooooooooo.o",
".oooooooooooooooooooooooooooooooooooooooooooooooooooooooooo.",
".oooooooooooooooooooooooooooooooooooooooooooooooooooooooooo.",
"o.oooooooooooooooooooooooooooooooooooooooooooooooooooooooo.o",
".oooooooooooooooooooooooooooooooooooooooooooooooooooooooooo.",
".oooooooooooooooooooooooooooooooooooooooooooooooooooooooooo.",
"o.oooooooooooooooooooooooooooooooooooooooooooooooooooooooo.o",
".oooooooooooooooooooooooooooooooooooooooooooooooooooooooooo.",
".oooooooooooooooooooooooooooooooooooooooooooooooooooooooooo.",
"o.oooooooooooooooooooooooooooooooooooooooooooooooooooooooo.o",
".oooooooooooooooooooooooooooooooooooooooooooooooooooooooooo.",
".oooooooooooooooooooooooooooooooooooooooooooooooooooooooooo.",
"o.oooooooooooooooooooooooooooooooooooooooooooooooooooooooo.o",
".oooooooooooooooooooooooooooooooooooooooooooooooooooooooooo.",
".oooooooooooooooooooooooooooooooooooooooooooooooooooooooooo.",
"o.oooooooooooooooooooooooooooooooooooooooooooooooooooooooo.o",
".oooooooooooooooooooooooooooooooooooooooooooooooooooooooooo.",
".oooooooooooooooooooooooooooooooooooooooooooooooooooooooooo.",
".OOooOOooOOooOOooOOooOOooOOooOOooOOooOOooOOooOOooOOooOOooOO.",
".XXOOXXOOXXOOXXOOXXOOXXOOXXOOXXOOXXOOXXOOXXOOXXOOXXOOXXOOXX.",
".XXXXXXXXXXXXXXXXXXXXXXXXXXXXXXXXXXXXXXXXXXXXXXXXXXXXXXXXXX."
};
