/* XPM */
static char *ea8249bb4ba642a6af261db0fc370e4d5zlPnMQD88BlA4vK[] = {
/* columns rows colors chars-per-pixel */
"60 60 6 1 ",
"  c black",
". c #2A594F",
"X c #3B7D4F",
"o c #63AB3F",
"O c #A4C443",
"+ c white",
/* pixels */
"............................................................",
".oooooo.oooo.oooooo.oooooo.oo.ooooooo.ooooooo.oooooo.oooooo.",
".oooooooooooooooooooooooooooooooooooooooooooooooooooooooooo.",
"o.oooooooooooooooooooooooooooooooooooooooooooooooooooooooo.o",
".oooooooooooooooooooooooooooooooooooooooooooooooooooooooooo.",
".oooooooooooooooooooooooooooooooooooooooooooooooooooooooooo.",
"o.oooooooooooooooooooooooooooooooooooooooooooooooooooooooo.o",
".oooooooooooooooooooooooooooooooooooooooooooooooooooooooooo.",
".oooooooooooooooooooooooooooooooooooooooooooooooooooooooooo.",
"o.oooooooooooooooooooooooooooooooooooooooooooooooooooooooo.o",
".oooooooooooooooooooooooooooooooooooooooooooooooooooooooooo.",
".oooooooooooooooooooooooooooooooooooooooooooooooooooooooooo.",
"o.oooooooooooooooooooooooooooooooooooooooooooooooooooooooo.o",
".oooooooooooooooooooooooooooooooooooooooooooooooooooooooooo.",
".oooooooooooooooooooooooooooooooooooooooooooooooooooooooooo.",
"o.oooooooooooooooooooooooooooooooooooooooooooooooooooooooo.o",
".oooooooooooooooooooooooooooooooooooooooooooooooooooooooooo.",
".oooooooooooooooooooooooooooooooooooooooooooooooooooooooooo.",
"o.oooooooooooooooooooooooooooooooooooooooooooooooooooooooo.o",
".oooooooooooooooooooooooooooooooooooooooooooooooooooooooooo.",
".oooooooooooooooooooooooooooooooooooooooooooooooooooooooooo.",
"o.oooooooooooooooooooooooooooooooooooooooooooooooooooooooo.o",
".oooooooooooooooooooooooooooooooooooooooooooooooooooooooooo.",
".oooooooooooooooooooooooooooooooooooooooooooooooooooooooooo.",
"o.oooooooooooooooooooooooooooooooooooooooooooooooooooooooo.o",
".oooooooooooooooooooooooooooooooooooooooooooooooooooooooooo.",
".oooooooooooooooooooooooooooooooooooooooooooooooooooooooooo.",
"o.oooooooooooooooooooooooooooooooooooooooooooooooooooooooo.o",
".oooooooooooooooooooooooooooooooooooooooooooooooooooooooooo.",
".oooooooooooooooooooooooooooooooooooooooooooooooooooooooooo.",
"o.oooooooooooooooooooooooooooooooooooooooooooooooooooooooo.o",
".oooooooooooooooooooooooooooooooooooooooooooooooooooooooooo.",
".oooooooooooooooooooooooooooooooooooooooooooooooooooooooooo.",
"o.oooooooooooooooooooooooooooooooooooooooooooooooooooooooo.o",
".oooooooooooooooooooooooooooooooooooooooooooooooooooooooooo.",
".oooooooooooooooooooooooooooooooooooooooooooooooooooooooooo.",
"o.oooooooooooooooooooooooooooooooooooooooooooooooooooooooo.o",
".oooooooooooooooooooooooooooooooooooooooooooooooooooooooooo.",
".oooooooooooooooooooooooooooooooooooooooooooooooooooooooooo.",
"o.ooo        ooooooooooooooooooooooooooooooooooooooooooooo.o",
".    ++++++++   ooooooooooooooooooooooooooooooooooooooooooo.",
" ++++++++ ++++++ oooooooooooooooooooooooooooooooooooooooooo.",
"o ++++++ +++ ++ oooooooooooooooooooooooooooooooooooooooooo.o",
".o  ++++   +++++ oooooooooooooooooooooooooooooooooooooooooo.",
".   ++++ + +++++ oooooooooooooooooooooooooooooooooooooooooo.",
" +++++++ +++ +++ ooooooooooooooooooooooooooooooooooooooooo.o",
". +++++++ ++++++ oooooooooooooooooooooooooooooooooooooooooo.",
".o  +++++++++++ ooooooooooooooooooooooooooooooooooooooooooo.",
"o.o ++++++++++++ ooooooooooooooooooooooooooooooooooooooooo.o",
".oo ++++++++++  ooooooooooooooooooooooooooooooooooooooooooo.",
".   +++++++++ ooooooooooooooooooooooooooooooooooooooooooooo.",
" +++++++++++ ooooooooooooooooooooooooooooooooooooooooooooo.o",
". +++++++++ ooooooooooooooooooooooooooooooooooooooooooooooo.",
".o  +++++++ ooooooooooooooooooooooooooooooooooooooooooooooo.",
"o   ++++++ ooooooooooooooooooooooooooooooooooooooooooooooo.o",
" +++++++++ oooooooooooooooooooooooooooooooooooooooooooooooo.",
". ++++++++   oooooooooooooooooooooooooooooooooooooooooooooo.",
".O    +++++++ OooOOooOOooOOooOOooOOooOOooOOooOOooOOooOOooOO.",
".XXOOX       XXOOXXOOXXOOXXOOXXOOXXOOXXOOXXOOXXOOXXOOXXOOXX.",
".XXXXXXXXXXXXXXXXXXXXXXXXXXXXXXXXXXXXXXXXXXXXXXXXXXXXXXXXXX."
};
