/* XPM */
static char *result[] = {
/* columns rows colors chars-per-pixel */
"60 60 6 1 ",
"  c black",
". c #2A594F",
"X c #3B7D4F",
"o c #63AB3F",
"O c #A4C443",
"+ c white",
/* pixels */
"............................................................",
".oooooo.oooo.oooooo.oooooo.oo.ooooooo.ooooooo.oooooo.oooooo.",
".oooooooooooooooooooooooooooooooooooooooooooooooooooooooooo.",
"o.oooooooooooooooooooooooooooooooooooooooooooooooooooooooo.o",
".oooooooooooooooooooooooooooooooooooooooooooooooooooooooooo.",
".oooooooooooooooooooooooooooooooooooooooooooooooooooooooooo.",
"o.oooooooooooooooooooooooooooooooooooooooooooooooooooooooo.o",
".oooooooooooooooooooooooooooooooooooooooooooooooooooooooooo.",
".oooooooooooooooooooooooooooooooooooooooooooooooooooooooooo.",
"o.oooooooooooooooooooooooooooooooooooooooooooooooooooooooo.o",
".oooooooooooooooooooooooooooooooooooooooooooooooooooooooooo.",
".oooooooooooooooooooooooooooooooooooooooooooooooooooooooooo.",
"o.oooooooooooooooooooooooooooooooooooooooooooooooooooooooo.o",
".oooooooooooooooooooooooooooooooooooooooooooooooooooooooooo.",
".oooooooooooooooooooooooooooooooooooooooooooooooooooooooooo.",
"o.oooooooooooooooooooooooooooooooooooooooooooooooooooooooo.o",
".oooooooooooooooooooooooooooooooooooooooooooooooooooooooooo.",
".oooooooooooooooooooooooooooooooooooooooooooooooooooooooooo.",
"o.oooooooooooooooooooooooooooooooooooooooooooooooooooooooo.o",
".oooooooooooooooooooooooooooooooooooooooooooooooooooooooooo.",
".oooooooooooooooooooooooooooooooooooooooooooooooooooooooooo.",
"o.oooooooooooooooooooooooooooooooooooooooooooooooooooooooo.o",
".oooooooooooooooooooooooooooooooooooooooooooooooooooooooooo.",
".oooooooooooooooooooooooooooooooooooooooooooooooooooooooooo.",
"o.oooooooooooooooooooooooooooooooooooooooooooooooooooooooo.o",
".oooooooooooooooooooooooooooooooooooooooooooooooooooooooooo.",
".oooooooooooooooooooooooooooooooooooooooooooooooooooooooooo.",
"o.oooooooooooooooooooooooooooooooooooooooooooooooooooooooo.o",
".oooooooooooooooooooooooooooooooooooooooooooooooooooooooooo.",
".oooooooooooooooooooooooooooooooooooooooooooooooooooooooooo.",
"o.oooooooooooooooooooooooooooooooooooooooooooooooooooooooo.o",
".oooooooooooooooooooooooooooooooooooooooooooooooooooooooooo.",
".oooooooooooooooooooooooooooooooooooooooooooooooooooooooooo.",
"o.oooooooooooooooooooooooooooooooooooooooooooooooooooooooo.o",
".oooooooooooooooooooooooooooooooooooooooooooooooooooooooooo.",
".oooooooooooooooooooooooooooooooooooooooooooooooooooooooooo.",
"o.oooooooooooooooooooooooooooooooooooooooooooooooooooooooo.o",
".oooooooooooooooooooooooooooooooooooooooooooooo        oooo.",
".ooooooooooooooooooooooooooooooooooooooooooo   ++++++++    .",
"o.ooooooooooooooooooooooooooooooooooooooooo ++++++ ++++++++ ",
".ooooooooooooooooooooooooooooooooooooooooooo ++ +++ ++++++ .",
".oooooooooooooooooooooooooooooooooooooooooo +++++   ++++  o.",
"o.ooooooooooooooooooooooooooooooooooooooooo +++++ + ++++   o",
".oooooooooooooooooooooooooooooooooooooooooo +++ +++ +++++++ ",
".oooooooooooooooooooooooooooooooooooooooooo ++++++ +++++++ .",
"o.oooooooooooooooooooooooooooooooooooooooooo +++++++++++  .o",
".oooooooooooooooooooooooooooooooooooooooooo ++++++++++++ oo.",
".ooooooooooooooooooooooooooooooooooooooooooo  ++++++++++ oo.",
"o.oooooooooooooooooooooooooooooooooooooooooooo +++++++++   o",
".oooooooooooooooooooooooooooooooooooooooooooooo +++++++++++ ",
".ooooooooooooooooooooooooooooooooooooooooooooooo +++++++++ .",
"o.oooooooooooooooooooooooooooooooooooooooooooooo +++++++  .o",
".oooooooooooooooooooooooooooooooooooooooooooooooo ++++++   .",
".oooooooooooooooooooooooooooooooooooooooooooooooo +++++++++ ",
"o.ooooooooooooooooooooooooooooooooooooooooooooo   ++++++++ o",
".ooooooooooooooooooooooooooooooooooooooooooooo +++++++    o.",
".oooooooooooooooooooooooooooooooooooooooooooooo       ooooo.",
".OOooOOooOOooOOooOOooOOooOOooOOooOOooOOooOOooOOooOOooOOooOO.",
".XXOOXXOOXXOOXXOOXXOOXXOOXXOOXXOOXXOOXXOOXXOOXXOOXXOOXXOOXX.",
".XXXXXXXXXXXXXXXXXXXXXXXXXXXXXXXXXXXXXXXXXXXXXXXXXXXXXXXXXX."
};
