/* XPM */
static char *result[] = {
/* columns rows colors chars-per-pixel */
"60 60 6 1 ",
"  c black",
". c #2A594F",
"X c #3B7D4F",
"o c #63AB3F",
"O c #A4C443",
"+ c white",
/* pixels */
"............................................................",
".oooooo.oooo.oooooo.oooooo.oo.ooooooo.ooooooo.oooooo.oooooo.",
".oooooooooooooooooooooooooooooooooooooooooooooooooooooooooo.",
"o.oooooooooooooooooooooooooooooooooooooooooooooooooooooooo.o",
".oooooooooooooooooooooooooooooooooooooooooooooooooooooooooo.",
".oooooooooooooooooooooooooooooooooooooooooooooooooooooooooo.",
"o.oooooooooooooooooooooooooooooooooooooooooooooooooooooooo.o",
".oooooooooooooooooooooooooooooooooooooooooooooooooooooooooo.",
".oooooooooooooooooooooooooooooooooooooooooooooooooooooooooo.",
"o.oooooooooooooooooooooooooooooooooooooooooooooooooooooooo.o",
".oooooooooooooooooooooooooooooooooooooooooooooooooooooooooo.",
".oooooooooooooooooooooooooooooooooooooooooooooooooooooooooo.",
"o.oooooooooooooooooooooooooooooooooooooooooooooooooooooooo.o",
".oooooooooooooooooooooooooooooooooooooooooooooooooooooooooo.",
".oooooooooooooooooooooooooooooooooooooooooooooooooooooooooo.",
"o.oooooooooooooooooooooooooooooooooooooooooooooooooooooooo.o",
".oooooooooooooooooooooooooooooooooooooooooooooooooooooooooo.",
".oooooooooooooooooooooooooooooooooooooooooooooooooooooooooo.",
"o.oooooooooooooooooooooooooooooooooooooooooooooooooooooooo.o",
".oooooooooooooooooooooooooooooooooooooooooooooooooooooooooo.",
".oooooooooooooooooooooooooooooooooooooooooooooooooooooooooo.",
"o.oooo       ooooooooooooooooooooooooooooooooooooooooooooo.o",
".o    +++++++ ooooooooooooooooooooooooooooooooooooooooooooo.",
". ++++++++   oooooooooooooooooooooooooooooooooooooooooooooo.",
" +++++++++ ooooooooooooooooooooooooooooooooooooooooooooooo.o",
".   ++++++ oooooooooooooooooooooooooooooooooooooooooooooooo.",
".o  +++++++ ooooooooooooooooooooooooooooooooooooooooooooooo.",
"o +++++++++ oooooooooooooooooooooooooooooooooooooooooooooo.o",
" +++++++++++ oooooooooooooooooooooooooooooooooooooooooooooo.",
".   +++++++++ ooooooooooooooooooooooooooooooooooooooooooooo.",
"o.o ++++++++++  oooooooooooooooooooooooooooooooooooooooooo.o",
".oo ++++++++++++ oooooooooooooooooooooooooooooooooooooooooo.",
".o  +++++++++++ ooooooooooooooooooooooooooooooooooooooooooo.",
"o +++++++ ++++++ ooooooooooooooooooooooooooooooooooooooooo.o",
" +++++++ +++ +++ oooooooooooooooooooooooooooooooooooooooooo.",
".   ++++ + +++++ oooooooooooooooooooooooooooooooooooooooooo.",
"o.  ++++   +++++ ooooooooooooooooooooooooooooooooooooooooo.o",
". ++++++ +++ ++ ooooooooooooooooooooooooooooooooooooooooooo.",
" ++++++++ ++++++ oooooooooooooooooooooooooooooooooooooooooo.",
"o    ++++++++   oooooooooooooooooooooooooooooooooooooooooo.o",
".oooo        oooooooooooooooooooooooooooooooooooooooooooooo.",
".oooooooooooooooooooooooooooooooooooooooooooooooooooooooooo.",
"o.oooooooooooooooooooooooooooooooooooooooooooooooooooooooo.o",
".oooooooooooooooooooooooooooooooooooooooooooooooooooooooooo.",
".oooooooooooooooooooooooooooooooooooooooooooooooooooooooooo.",
"o.oooooooooooooooooooooooooooooooooooooooooooooooooooooooo.o",
".oooooooooooooooooooooooooooooooooooooooooooooooooooooooooo.",
".oooooooooooooooooooooooooooooooooooooooooooooooooooooooooo.",
"o.oooooooooooooooooooooooooooooooooooooooooooooooooooooooo.o",
".oooooooooooooooooooooooooooooooooooooooooooooooooooooooooo.",
".oooooooooooooooooooooooooooooooooooooooooooooooooooooooooo.",
"o.oooooooooooooooooooooooooooooooooooooooooooooooooooooooo.o",
".oooooooooooooooooooooooooooooooooooooooooooooooooooooooooo.",
".oooooooooooooooooooooooooooooooooooooooooooooooooooooooooo.",
"o.oooooooooooooooooooooooooooooooooooooooooooooooooooooooo.o",
".oooooooooooooooooooooooooooooooooooooooooooooooooooooooooo.",
".oooooooooooooooooooooooooooooooooooooooooooooooooooooooooo.",
".OOooOOooOOooOOooOOooOOooOOooOOooOOooOOooOOooOOooOOooOOooOO.",
".XXOOXXOOXXOOXXOOXXOOXXOOXXOOXXOOXXOOXXOOXXOOXXOOXXOOXXOOXX.",
".XXXXXXXXXXXXXXXXXXXXXXXXXXXXXXXXXXXXXXXXXXXXXXXXXXXXXXXXXX."
};
