/* XPM */
static char *result[] = {
/* columns rows colors chars-per-pixel */
"60 60 6 1 ",
"  c black",
". c #2A594F",
"X c #3B7D4F",
"o c #63AB3F",
"O c #A4C443",
"+ c white",
/* pixels */
"............................................................",
".oooooo.oooo.oooooo.oooooo.oo.ooooooo.ooooooo.oooooo.oooooo.",
".oooooooooooooooooooooooooooooooooooooooooooooooooooooooooo.",
"o.oooooooooooooooooooooooooooooooooooooooooooooooooooooooo.o",
".oooooooooooooooooooooooooooooooooooooooooooooooooooooooooo.",
".oooooooooooooooooooooooooooooooooooooooooooooooooooooooooo.",
"o.oooooooooooooooooooooooooooooooooooooooooooooooooooooooo.o",
".oooooooooooooooooooooooooooooooooooooooooooooooooooooooooo.",
".oooooooooooooooooooooooooooooooooooooooooooooooooooooooooo.",
"o.oooooooooooooooooooooooooooooooooooooooooooooooooooooooo.o",
".oooooooooooooooooooooooooooooooooooooooooooooooooooooooooo.",
".oooooooooooooooooooooooooooooooooooooooooooooooooooooooooo.",
"o.oooooooooooooooooooooooooooooooooooooooooooooooooooooooo.o",
".oooooooooooooooooooooooooooooooooooooooooooooooooooooooooo.",
".oooooooooooooooooooooooooooooooooooooooooooooooooooooooooo.",
"o.oooooooooooooooooooooooooooooooooooooooooooooooooooooooo.o",
".oooooooooooooooooooooooooooooooooooooooooooooooooooooooooo.",
".oooooooooooooooooooooooooooooooooooooooooooooooooooooooooo.",
"o.oooooooooooooooooooooooooooooooooooooooooooooooooooooooo.o",
".oooooooooooooooooooooooooooooooooooooooooooooooooooooooooo.",
".oooooooooooooooooooooooooooooooooooooooooooooooooooooooooo.",
"o.oooooooooooooooooooooooooooooooooooooooooooooooooooooooo.o",
".oooooooooooooooooooooooooooooooooooooooooooooooooooooooooo.",
".oooooooooooooooooooooooooooooooooooooooooooooooooooooooooo.",
"o.oooooooooooooooooooooooooooooooooooooooooooooooooooooooo.o",
".oooooooooooooooooooooooooooooooooooooooooooooooooooooooooo.",
".oooooooooooooooooooooooooooooooooooooooooooooooooooooooooo.",
"o.oooooooooooooooooooooooooooooooooooooooooooooooooooooooo.o",
".oooooooooooooooooooooooooooooooooooooooooooooooooooooooooo.",
".oooooooooooooooooooooooooooooooooooooooooooooooooooooooooo.",
"o.oooooooooooooooooooooooooooooooooooooooooooooooooooooooo.o",
".oooooooooooooooooooooooooooooooooooooooooooooooooooooooooo.",
".oooooooooooooooooooooooooooooooooooooooooooooooooooooooooo.",
"o.oooooooooooooooooooooooooooooooooooooooooooooooooooooooo.o",
".oooooooooooooooooooooooooooooooooooooooooooooooooooooooooo.",
".oooooooooooooooooooooooooooooooooooooooooooooooooooooooooo.",
"o.oooooooooooooooooooooooooooooooooooooooooooooooooooooooo.o",
".oooooooooooooooooooooooooooooooooooooooooooooooooooooooooo.",
".oooooooooooooooooooooooooooooooooooooooooooooooooooooooooo.",
"o.oooooooooooooooooooooooooooooooooooooooooooooooooooooooo.o",
".oooooooooooooooooooooooooooooooooooooooooooooooooooooooooo.",
".oooooooooooooooooooooooooooooooooooooooooooooooooooooooooo.",
"o.oooooooooooooooooooooooooooooooooooooooooooooooooooooooo.o",
".oooooooooooooooooooooooooooooooo o    o oooooooooooooooooo.",
".ooooooooooooooooooooooooooooooo + ++++ + ooooooooooooooooo.",
"o.oooooooooooooooooooooooooooooo ++++++++ oooooooooooooooo.o",
".ooooooooooooooooooooooo oooooo +++++++++ ooooooooooooooooo.",
".oooooooooooooooooooooo + oooo +++++ ++ ++ oooooooooooooooo.",
"o.ooooooooooooooooooooo + oo  ++++++++++++ ooooooooooooooo.o",
".oooooooooooooooooooooo +   +++++++++  +++ oooooooooooooooo.",
".oooooooooooooooooooooo +++++++++++ ++ + + oooooooooooooooo.",
"o.ooooooooooooooooooooo ++++++++++++    ++ ooooooooooooooo.o",
".oooooooooooooooooooooo ++++++++++++++++++ oooooooooooooooo.",
".oooooooooooooooooooooo ++++++++++++++++++ oooooooooooooooo.",
"o.oooooooooooooooooooooo +++++++++++++++++ ooooooooooooooo.o",
".ooooooooooooooooooooooo ++++++++++++++++ ooooooooooooooooo.",
".ooooooooooooooooooooooo ++  ++    ++  ++ ooooooooooooooooo.",
".OOooOOooOOooOOooOOooOOo ++  ++ oO ++  ++ OooOOooOOooOOooOO.",
".XXOOXXOOXXOOXXOOXXOOXXOO + O + OXX + X + XOOXXOOXXOOXXOOXX.",
".XXXXXXXXXXXXXXXXXXXXXXXXX XXX XXXXX XXX XXXXXXXXXXXXXXXXXX."
};
