/* XPM */
static char *_d77b33c132344dae5f2a185a181d8ca5E4nv06Ey5V46Lfh[] = {
/* columns rows colors chars-per-pixel */
"60 60 10 1 ",
"  c #1F1E17",
". c #3B392B",
"X c #2A594F",
"o c #3B7D4F",
"O c #63AB3F",
"+ c #A4C443",
"@ c gray63",
"# c #D5D2A5",
"$ c #F8F6CC",
"% c white",
/* pixels */
"XXXXXXXXXXXXXXXXXXXXXXXXXXXXXXXXXXXXXXXXXXXXXXXXXXXXXXXXXXXX",
"XOOOOOOXOOOOXOOOOOOXOOOOOOXOOXOOOOOOOXOOOOOOOXOOOOOOXOOOOOOX",
"XOOOOOOOOOOOOOOOOOOOOOOOOOOOOOOOOOOOOOOOOOOOOOOOOOOOOOOOOOOX",
"OXOOOOOOOOOOOOOOOOOOOOOOOOOOOOOOOOOOOOOOOOOOOOOOOOOOOOOOOOXO",
"XOOOOOOOOOOOOOOOOOOOOOOOOOOOOOOOOOOOOOOOOOOOOOOOOOOOOOOOOOOX",
"XOOOOOOOOOOOOOOOOOOOOOOOOOOOOOOOOOOOOOOOOOOOOOOOOOOOOOOOOOOX",
"OXOOOOOOOOOOOOOOOOOOOOOOOOOOOOOOOOOOOOOOOOOOOOOOOOOOOOOOOOXO",
"XOOOOOOOOOOOOOOOOOOOOOOOOOOOOOOOOOOOOOOOOOOOOOOOOOOOOOOOOOOX",
"XOOOOOOOOOOOOOOOOOOOOOOOOOOOOOOOOOOOOOOOOOOOOOOOOOOOOOOOOOOX",
"OXOOOOOOOOOOOOOOOOOOOOOOOOOOOOOOOOOOOOOOOOOOOOOOOOOOOOOOOOXO",
"XOOOOOOOOOOOOOOOOOOOOOOOOOOOOOOOOOOOOOOOOOOOOOOOOOOOOOOOOOOX",
"XOOOOOOOOOOOOOOOOOOOOOOOOOOOOOOOOOOOOOOOOOOOOOOOOOOOOOOOOOOX",
"OXOOOOOOOOOOOOOOOOOOOOOOOOOOOOOOOOOOOOOOOOOOOOOOOOOOOOOOOOXO",
"XOOOOOOOOOOOOOOOOOOOOOOOOOOOOOOOOOOOOOOOOOOOOOOOOOOOOOOOOOOX",
"XOOOOOOOOOOOOOOOOOOOOOOOOOOOOOOOOOOOOOOOOOOOOOOOOOOOOOOOOOOX",
"OXOOOOOOOOOOOOOOOOOOOOOOOOOOOOOOOOOOOOOOOOOOOOOOOOOOOOOOOOXO",
"XOOOOOOOOOOOOOOOOOOOOOOOOOOOOOOOOOOOOOOOOOOOOOOOOOOOOOOOOOOX",
"XOOOOOOOOOOOOOOOOOOOOOOOOOOOOOOOOOOOOOOOOOOOOOOOOOOOOOOOOOOX",
"OXOOOOOOOOOOOOOOOOOOOOOOOOOOOOOOOOOOOOOOOOOOOOOOOOOOOOOOOOXO",
"XOOOOOOOOOOOOOOOOOOOOOOOOOOOOOOOOOOOOOOOOOOOOOOOOOOOOOOOOOOX",
"XOOOOOOOOOOOOOOOOOOOOOOOOOOOOOOOOOOOOOOOOOOOOOOOOOOOOOOOOOOX",
"OXOOOOOOOOOOOOOOOOOOOOOOOOOOOOOOOOOOOOOOOOOOOOOOOOOOOOOOOOXO",
"XOOOOOOOOOOOOOOOOOOOOOOOOOOOOOOOOOOOOOOOOOOOOOOOOOOOOOOOOOOX",
"XOOOOOOOOOOOOOOOOOOOOOOOOOOOOOOOOOOOOOOOOOOOOOOOOOOOOOOOOOOX",
"OXOOOOOOOOOOOOOOOOOOOOOOOO%%%%%%%%OOOOOOOOOOOOOOOOOOOOOOOOXO",
"XOOOOOOOOOOOOOOOOOOOOOOO%%........%%OOOOOOOOOOOOOOOOOOOOOOOX",
"XOOOOOOOOOOOOOOOOOOOOOO%..%%%%%%%%..%OOOOOOOOOOOOOOOOOOOOOOX",
"OXOOOOOOOOOOOOOOOOOOOO%.%%$$$$$$$$%%.%OOOOOOOOOOOOOOOOOOOOXO",
"XOOOOOOOOOOOOOOOOOOOO%.%$$$$$$$$$$$$%.%OOOOOOOOOOOOOOOOOOOOX",
"XOOOOOOOOOOOOOOOOOOOO%.$$$$$$$$$$$$$$.%OOOOOOOOOOOOOOOOOOOOX",
"OXOOOOOOOOOOOOOOOOOO%.$$$$    $$$$$$  .%OOOOOOOOOOOOOOOOOOXO",
"XOOOOOOOOOOOOOOOOOOO%.$$$      $$$$   .%OOOOOOOOOOOOOOOOOOOX",
"XOOOOOOOOOOOOOOOOOOO%.$$$      $$$$   .%OOOOOOOOOOOOOOOOOOOX",
"OXOOOOOOOOOOOOOOOOOO%.$$$      $$#$   .%OOOOOOOOOOOOOOOOOOXO",
"XOOOOOOOOOOOOOOOOOOO% #$$      $$#$   .%OOOOOOOOOOOOOOOOOOOX",
"XOOOOOOOOOOOOOOOOOOO% ##$$$$$$$$$$$$$$.%OOOOOOOOOOOOOOOOOOOX",
"OXOOOOOOOOOOOOOOOOOO%  #######$$$$$$$$.%OOOOOOOOOOOOOOOOOOXO",
"XOOOOOOOOOOOOOOOOOOOO@       ### ## ## %OOOOOOOOOOOOOOOOOOOX",
"XOOOOOOOOOOOOOOOOOOOO%@       ## ## ## %OOOOOOOOOOOOOOOOOOOX",
"OXOOOOOOOOOOOOOOOOOOOO%@@@@@@          %OOOOOOOOOOOOOOOOOOXO",
"XOOOOOOOOOOOOOOOOOOOOO%%%%%%%%%%%%%%%%%OOOOOOOOOOOOOOOOOOOOX",
"XOOOOOOOOOOOOOOOOOOOOOOOOOOOOOOOOOOOOOOOOOOOOOOOOOOOOOOOOOOX",
"OXOOOOOOOOOOOOOOOOOOOOOOOOOOOOOOOOOOOOOOOOOOOOOOOOOOOOOOOOXO",
"XOOOOOOOOOOOOOOOOOOOOOOOOOOOOOOOOOOOOOOOOOOOOOOOOOOOOOOOOOOX",
"XOOOOOOOOOOOOOOOOOOOOOOOOOOOOOOOOOOOOOOOOOOOOOOOOOOOOOOOOOOX",
"OXOOOOOOOOOOOOOOOOOOOOOOOOOOOOOOOOOOOOOOOOOOOOOOOOOOOOOOOOXO",
"XOOOOOOOOOOOOOOOOOOOOOOOOOOOOOOOOOOOOOOOOOOOOOOOOOOOOOOOOOOX",
"XOOOOOOOOOOOOOOOOOOOOOOOOOOOOOOOOOOOOOOOOOOOOOOOOOOOOOOOOOOX",
"OXOOOOOOOOOOOOOOOOOOOOOOOOOOOOOOOOOOOOOOOOOOOOOOOOOOOOOOOOXO",
"XOOOOOOOOOOOOOOOOOOOOOOOOOOOOOOOOOOOOOOOOOOOOOOOOOOOOOOOOOOX",
"XOOOOOOOOOOOOOOOOOOOOOOOOOOOOOOOOOOOOOOOOOOOOOOOOOOOOOOOOOOX",
"OXOOOOOOOOOOOOOOOOOOOOOOOOOOOOOOOOOOOOOOOOOOOOOOOOOOOOOOOOXO",
"XOOOOOOOOOOOOOOOOOOOOOOOOOOOOOOOOOOOOOOOOOOOOOOOOOOOOOOOOOOX",
"XOOOOOOOOOOOOOOOOOOOOOOOOOOOOOOOOOOOOOOOOOOOOOOOOOOOOOOOOOOX",
"OXOOOOOOOOOOOOOOOOOOOOOOOOOOOOOOOOOOOOOOOOOOOOOOOOOOOOOOOOXO",
"XOOOOOOOOOOOOOOOOOOOOOOOOOOOOOOOOOOOOOOOOOOOOOOOOOOOOOOOOOOX",
"XOOOOOOOOOOOOOOOOOOOOOOOOOOOOOOOOOOOOOOOOOOOOOOOOOOOOOOOOOOX",
"X++OO++OO++OO++OO++OO++OO++OO++OO++OO++OO++OO++OO++OO++OO++X",
"Xoo++oo++oo++oo++oo++oo++oo++oo++oo++oo++oo++oo++oo++oo++ooX",
"XooooooooooooooooooooooooooooooooooooooooooooooooooooooooooX"
};
