/* XPM */
static char *_f812f7d074648f5f3bb7190dea22020fcF7wfw2Z62UWaYQ[] = {
/* columns rows colors chars-per-pixel */
"60 60 6 1 ",
"  c black",
". c #2A594F",
"X c #3B7D4F",
"o c #63AB3F",
"O c #A4C443",
"+ c white",
/* pixels */
"............................................................",
".oooooo.oooo.oooooo.oooooo.oo.ooooooo.ooooooo.oooooo.oooooo.",
".oooooooooooooooooooooooooooooooooooooooooooooooooooooooooo.",
"o.oooooooooooooooooooooooooooooooooooooooooooooooooooooooo.o",
".oooooooooooooooooooooooooooooooooooooooooooooooooooooooooo.",
".oooooooooooooooooooooooooooooooooooooooooooooooooooooooooo.",
"o.oooooooooooooooooooooooooooooooooooooooooooooooooooooooo.o",
".oooooooooooooooooooooooooooooooooooooooooooooooooooooooooo.",
".oooooooooooooooooooooooooooooooooooooooooooooooooooooooooo.",
"o.oooooooooooooooooooooooooooooooooooooooooooooooooooooooo.o",
".oooooooooooooooooooooooooooooooooooooooooooooooooooooooooo.",
".oooooooooooooooooooooooooooooooooooooooooooooooooooooooooo.",
"o.oooooooooooooooooooooooooooooooooooooooooooooooooooooooo.o",
".oooooooooooooooooooooooooooooooooooooooooooooooooooooooooo.",
".oooooooooooooooooooooooooooooooooooooooooooooooooooooooooo.",
"o.oooooooooooooooooooooooooooooooooooooooooooooooooooooooo.o",
".oooooooooooooooooooooooooooooooooooooooooooooooooooooooooo.",
".oooooooooooooooooooooooooooooooooooooooooooooooooooooooooo.",
"o.oooooooooooooooooooooooooooooooooooooooooooooooooooooooo.o",
".oooooooooooooooooooooooooooooooooooooooooooooooooooooooooo.",
".oooooooooooooooooooooooooooooooooooooooooooooooooooooooooo.",
"o.ooooooooooooooooooo o    o ooooooooooooooooooooooooooooo.o",
".ooooooooooooooooooo + ++++ + ooooooooooooooooooooooooooooo.",
".ooooooooooooooooooo ++++++++ ooooooooooooooooooooooooooooo.",
"o.oooooooooooooooooo +++++++++ oooooo oooooooooooooooooooo.o",
".oooooooooooooooooo ++ ++ +++++ oooo + oooooooooooooooooooo.",
".oooooooooooooooooo ++++++++++++  oo + oooooooooooooooooooo.",
"o.ooooooooooooooooo +++  +++++++++   + ooooooooooooooooooo.o",
".oooooooooooooooooo + + ++ +++++++++++ oooooooooooooooooooo.",
".oooooooooooooooooo ++    ++++++++++++ oooooooooooooooooooo.",
"o.ooooooooooooooooo ++++++++++++++++++ ooooooooooooooooooo.o",
".oooooooooooooooooo ++++++++++++++++++ oooooooooooooooooooo.",
".oooooooooooooooooo +++++++++++++++++ ooooooooooooooooooooo.",
"o.oooooooooooooooooo ++++++++++++++++ oooooooooooooooooooo.o",
".ooooooooooooooooooo ++  ++    ++  ++ ooooooooooooooooooooo.",
".ooooooooooooooooooo ++  ++ oo ++  ++ ooooooooooooooooooooo.",
"o.oooooooooooooooooo + o + ooo + o + ooooooooooooooooooooo.o",
".oooooooooooooooooooo ooo ooooo ooo ooooooooooooooooooooooo.",
".oooooooooooooooooooooooooooooooooooooooooooooooooooooooooo.",
"o.oooooooooooooooooooooooooooooooooooooooooooooooooooooooo.o",
".oooooooooooooooooooooooooooooooooooooooooooooooooooooooooo.",
".oooooooooooooooooooooooooooooooooooooooooooooooooooooooooo.",
"o.oooooooooooooooooooooooooooooooooooooooooooooooooooooooo.o",
".oooooooooooooooooooooooooooooooooooooooooooooooooooooooooo.",
".oooooooooooooooooooooooooooooooooooooooooooooooooooooooooo.",
"o.oooooooooooooooooooooooooooooooooooooooooooooooooooooooo.o",
".oooooooooooooooooooooooooooooooooooooooooooooooooooooooooo.",
".oooooooooooooooooooooooooooooooooooooooooooooooooooooooooo.",
"o.oooooooooooooooooooooooooooooooooooooooooooooooooooooooo.o",
".oooooooooooooooooooooooooooooooooooooooooooooooooooooooooo.",
".oooooooooooooooooooooooooooooooooooooooooooooooooooooooooo.",
"o.oooooooooooooooooooooooooooooooooooooooooooooooooooooooo.o",
".oooooooooooooooooooooooooooooooooooooooooooooooooooooooooo.",
".oooooooooooooooooooooooooooooooooooooooooooooooooooooooooo.",
"o.oooooooooooooooooooooooooooooooooooooooooooooooooooooooo.o",
".oooooooooooooooooooooooooooooooooooooooooooooooooooooooooo.",
".oooooooooooooooooooooooooooooooooooooooooooooooooooooooooo.",
".OOooOOooOOooOOooOOooOOooOOooOOooOOooOOooOOooOOooOOooOOooOO.",
".XXOOXXOOXXOOXXOOXXOOXXOOXXOOXXOOXXOOXXOOXXOOXXOOXXOOXXOOXX.",
".XXXXXXXXXXXXXXXXXXXXXXXXXXXXXXXXXXXXXXXXXXXXXXXXXXXXXXXXXX."
};
