/* XPM */
static char *result[] = {
/* columns rows colors chars-per-pixel */
"60 60 10 1 ",
"  c black",
". c #1F1E17",
"X c #2A594F",
"o c #3B7D4F",
"O c #63AB3F",
"+ c #A4C443",
"@ c #FF78BF",
"# c #D5D2A5",
"$ c #F8F6CC",
"% c white",
/* pixels */
"XXXXXXXXXXXXXXXXXXXXXXXXXXXXXXXXXXXXXXXXXXXXXXXXXXXXXXXXXXXX",
"XOOOOOOXOOOOXOOOOOOXOOOOOOXOOXOOOOOOOXOOOOOOOXOOOOOOXOOOOOOX",
"XOOOOOOOOOOOOOOOOOOOOOOOOOOOOOOOOOOOOOOOOOOOOOOOOOOOOOOOOOOX",
"OXOOOOOOOOOOOOOOOOOOOOOOOOOOOOOOOOOOOOOOOOOOOOOOOOOOOOOOOOXO",
"XOOOOOOOOOOOOOOOOOOOOOOOOOOOOOOOOOOOOOOOOOOOOOOOOOOOOOOOOOOX",
"XOOOOOOOOOOOOOOOOOOOOOOOOOOOOOOOOOOOOOOOOOOOOOOOOOOOOOOOOOOX",
"OXOOOOOOOOOOOOOOOOOOOOOOOOOOOOOOOOOOOOOOOOOOOOOOOOOOOOOOOOXO",
"XOOOOO OOOOOOOO OOOOOO    OOOOOOO    OOOOOOOO     OOO OOOOOX",
"XOOOOO OOOOOOOO OOOOO OOOO OOOOO OOOO OOOOOO OOOOOOOO OOOOOX",
"OXOOOO OOOO OOO OOOO OOOOOO OOO OOOOOO OOOOO OOOOOOOO OOOOXO",
"XOOOOO OOOO OOO OOOO OOOOOO OOO OOOOOO OOOOO O   OOOO OOOOOX",
"XOOOOOO OOO OOO OOOO OOOOO OOOO OOOOO OOOOOO  OOOOOOO OOOOOX",
"OXOOOOOO O O O OOOOO OOOOO OOOO OOOOO OOOOOO OOOOOOOOOOOOOXO",
"XOOOOOOOO OOO OOOOOOO     OOOOOO     OOOOOOO OOOOOOO OOOOOOX",
"XOOOOOOOOOOOOOOOOOOOOOOOOOOOOOOOOOOOOOOOOOOOOOOOOOOOOOOOOOOX",
"OXOOOOOOOOOOOOOOOOOOOOOOOOOOOOOOOOOOOOOOOOOOOOOOOOOOOOOOOOXO",
"XOOOOOOOOOOOOOOOOOOOOOOOOOOOOOOOOOOOOOOOOOOOOOOOOOOOOOOOOOOX",
"XOOOOOOOOOOOOOOOOOOOOOOOOOOOOOOOOOOOOOOOOOOOOOOOOOOOOOOOOOOX",
"OXOOOOOOOOOOOOOOOOOOOOOOOOOOOOOOOOOOOOOOOOOOOOOOOOOOOOOOOOXO",
"XOOOOOOOOOOOOOOOOOOOOOOOOOOOOOOOOOOOOOOOOOOOOOOOOOOOOOOOOOOX",
"XOOOOOOOOOOOOOOOOOOOOOOOOO......OOOOOOOOOOOOOOOOOOOOOOOOOOOX",
"OXOOOOOOOOOOOOOOOOOOOOOO..$$$$$$.OOOOOOOOOOOOOOOOOOOOOOOOOXO",
"XOOOOOOOOOOOOOOOOOOOOOO.$$%$$$$$$.OOOOOOOOOOOOOOOOOOOOOOOOOX",
"XOOOOOOOOOOOOOOOOOOOOOO...$$$..$$.OOOOOOOOOOOOOOOOOOOOOOOOOX",
"OXOOOOOOOOOOOOOOOOOOOO.$..$#$..$$.OOOOOOOOOOOOOOOOOOOOOOOOXO",
"XOOOOOOOOOOOOOOOOOOOOO.$$$$$$####.OOOOOOOOOOOOOOOOOOOOOOOOOX",
"XOOOOOOOOOOOOOOOOOOOOO.#.#.#.#...OOOOOOOOOOOOOOOOOOOOOOOOOOX",
"OXOOOOOOOOOOOOOOOOOOOO.....   %        OOOOOOOOOOOOOOOOOOOXO",
"XOOOOOOOOOOOOOOOOOOOOO %% %% %%%%%%%%%%  OOOOOOOOOOOOOOOOOOX",
"XOOOOOOOOOOOOO    OOOO %@@%%@@%   %%%%%%% OOOOOOOOOOOOOOOOOX",
"OXOOOOOOOOOOO $%$$  OO %%%  %% $$$ %%%%%% OOOOOOOOOOOOOOOOXO",
"XOOOOOOOOOOOO $$%$$$     % %% $$$$ %%% %% O OOOOOOOOOOOOOOOX",
"XOOOOOOOOOOOOO $$$$$$$$$$    $$$$ %%% %%%% % OOOOOOOOOOOOOOX",
"OXOOOOOOOOOOO $$$$#############$$# %% %%%% % OOOOOOOOOOOOOXO",
"XOOOOOOOOOOOO ####             ### %  %%%% % OOOOOOOOOOOOOOX",
"XOOOOOOOOOOOOO    OOOO %% OO %%   O %%%%% O OOOOOOOOOOOOOOOX",
"OXOOOOOOOOOOOOOOOOOOOOO  OOOO  OOOOO     OOOOOOOOOOOOOOOOOXO",
"XOOOOOOOOOOOOOOOOOOOOOOOOOOOOOOOOOOOOOOOOOOOOOOOOOOOOOOOOOOX",
"XOOOOOOOOOOOOOOOOOOOOOOOOOOOOOOOOOOOOOOOOOOOOOOOOOOOOOOOOOOX",
"OXOOOOOOOOOOOOOOOOOOOOOOOOOOOOOOOOOOOOOOOOOOOOOOOOOOOOOOOOXO",
"XOOOOOOOOOOOOOOOOOOOOOOOOOOOOOOOOOOOOOOOOOOOOOOOOOOOOOOOOOOX",
"XOOOOOOOOOOOOOOOOOOOOOOOOOOOOOOOOOOOOOOOOOOOOOOOOOOOOOOOOOOX",
"OXOOOOOOOOOOOOOOOOOOOOOOOOOOOOOOOOOOOOOOOOOOOOOOOOOOOOOOOOXO",
"XOOOOOOOOOOOOOOOOOOOOOOOOOOOOOOOOOOOOOOOOOOOOOOOOOOOOOOOOOOX",
"XOOOOOOOOOOOOOOOOOOOOOOOOOOOOOOOOOOOOOOOOOOOOOOOOOOOOOOOOOOX",
"OXOOOOOOOOOOOOOOOOOOOOOOOOOOOOOOOOOOOOOOOOOOOOOOOOOOOOOOOOXO",
"XOOOOOOOOOOOOOOOOOOOOOOOOOOOOOOOOOOOOOOOOOOOOOOOOOOOOOOOOOOX",
"XOOOOOOOOOOOOOOOOOOOOOOOOOOOOOOOOOOOOOOOOOOOOOOOOOOOOOOOOOOX",
"OXOOOOOOOOOOOOOOOOOOOOOOOOOOOOOOOOOOOOOOOOOOOOOOOOOOOOOOOOXO",
"XOOOOOOOOOOOOOOOOOOOOOOOOOOOOOOOOOOOOOOOOOOOOOOOOOOOOOOOOOOX",
"XOOOOOOOOOOOOOOOOOOOOOOOOOOOOOOOOOOOOOOOOOOOOOOOOOOOOOOOOOOX",
"OXOOOOOOOOOOOOOOOOOOOOOOOOOOOOOOOOOOOOOOOOOOOOOOOOOOOOOOOOXO",
"XOOOOOOOOOOOOOOOOOOOOOOOOOOOOOOOOOOOOOOOOOOOOOOOOOOOOOOOOOOX",
"XOOOOOOOOOOOOOOOOOOOOOOOOOOOOOOOOOOOOOOOOOOOOOOOOOOOOOOOOOOX",
"OXOOOOOOOOOOOOOOOOOOOOOOOOOOOOOOOOOOOOOOOOOOOOOOOOOOOOOOOOXO",
"XOOOOOOOOOOOOOOOOOOOOOOOOOOOOOOOOOOOOOOOOOOOOOOOOOOOOOOOOOOX",
"XOOOOOOOOOOOOOOOOOOOOOOOOOOOOOOOOOOOOOOOOOOOOOOOOOOOOOOOOOOX",
"X++OO++OO++OO++OO++OO++OO++OO++OO++OO++OO++OO++OO++OO++OO++X",
"Xoo++oo++oo++oo++oo++oo++oo++oo++oo++oo++oo++oo++oo++oo++ooX",
"XooooooooooooooooooooooooooooooooooooooooooooooooooooooooooX"
};
