/* XPM */
static char *result[] = {
/* columns rows colors chars-per-pixel */
"60 60 12 1 ",
"  c #1F1E17",
". c #3B392B",
"X c #3B3A2C",
"o c #2A594F",
"O c #3B7D4F",
"+ c red",
"@ c #63AB3F",
"# c #A4C443",
"$ c #FF78BF",
"% c #D5D2A5",
"& c #F8F6CC",
"* c white",
/* pixels */
"oooooooooooooooooooooooooooooooooooooooooooooooooooooooooooo",
"o@@@@@@o@@@@o@@@@@@o@@@@@@o@@o@@@@@@@o@@@@@@@o@@@@@@o@@@@@@o",
"o@@@@@@@@@@@@@@@@@@@@@@@@@@@@@@@@@@@@@@@@@@@@@@@@@@@@@@@@@@o",
"@$$$$$@@@@@@@@@@@@@@@@@@@@@@@@@@@@@@@@@@@@@@@@@@@@@@@@@@@@o@",
"$+++++$@@@@@@@@@@@@@@@@@@@@@@@@@@@@@@@@@@@@@@@@@@@@@@@@@@@@o",
"+++++++$@@@@@@@@@@@@@@@@@@@@@@@@@@@@@@@@@@@@@@@@@@@@@@@@@@@o",
"+++++++$@@@@@@@@@@@@@@@@@@@@@@@@@@@@@@@@@@@@@@@@@@@@@@@@@@o@",
"++++++++$@@@@@@@@@@@@@@@@@@@@@@@@@@@@@@@@@@@@@@@@@@@@@@@@@@o",
"++++++++$@@@@@@@@@@@@@@@@@@@@@@@@@@@@@@@@@@@@@@@@@@@@@@@@@@o",
"++++++++$@@@@@@@@@@@@@@@@@@@@@@@@@@@@@@@@@@@@@@@@@@@@@@@@@o@",
"++++++++$@@@@@@@@@@@@@@@@@@@@@@@@@@@@@@@@@@@@@@@@@@@@@@@@@@o",
"+++++++$@@@@@@@@@@@@@@@@@@@@@@@@@@@@@@@@@@@@@@@@@@@@@@@@@@@o",
"+++++++$@@@@@@@@@@@@@@@@@@@@@@@@@@@@@@@@@@@@@@@@@@@@@@@@@@o@",
"++++++$@@@@@@@@@@@@@@@@@@@@@@@@@@@@@@@@@@@@@@@@@@@@@@@@@@@@o",
"+++++$@@@@@@@@@@@@@@@@@@@@@@@@@@@@@@@@@@@@@@@@@@@@@@@@@@@@@o",
"++++$@@@@@@@@@@@@@@@@@@@@@********@@@@@@@@@@@@@@@@@@@@@@@@o@",
"+++$@@@@@@@@@@@@@@@@@@@@**........**@@@@@@@@@@@@@@@@@@@@@@@o",
"++$@@@@@@@@@@@@@@@@@@@@*..********..*@@@@@@@@@@@@@@@@@@@@@@o",
"+$@@@@@@@@@@@@@@@@@@@@*.**&&&&&&&&**.*@@@@@@@@@@@@@@@@@@@@o@",
"$@@@@@@@@@@@@@@@@@@@@*.*&&&&&&&&&&&&*.*@@@@@@@@@@@@@@@@@@@@o",
"o@@@@@@@@@@@@@@@@@@@@*.&&&&&&&&&&&&&&.*@@@@@@@@@@@@@@@@@@@@o",
"@o@@@@@@@@@@@@@@@@@@*.  &&&&&&    &&&&.*@@@@@@@@@@@@@@@@@@o@",
"o@@@@@@@@@@@@@@@@@@@*.   &&&&      &&&.*@@@@@@@@@@@@@@@@@@@o",
"o@@@@@@@@@@@@@@@@@@@*.   &&&&      &&&.*@@@@@@@@@@@@@@@@@@@o",
"@o@@@@@@@@@@@@@@@@@@*.   &%&&      &&&.*@@@@@@@@@@@@@@@@@@o@",
"o@@@@@@@@@@@@@@@@@@@*.   &%&&      &&% *@@@@@@@@@@@@@@@@@@@o",
"o@@@@@@@@@@@@@@@@@@@*.$$$&&&&$$$$$&&%% *@@@@@@@@@@@@@@@@@@@o",
"@o@@@@@@@@@@@@@@@@@@*.&&&&&&&&%%%%%%%  *@@@@@@@@@@@@@@@@@@o@",
"o@@@@@@@@@@@@@@@@@@@* %% %% %%%       *@@@@@@@@@@@@@@@@@@@@o",
"o@@@@@@@@@@@@@@@@@@@* %% %% %%       *@@@@@@@@@@@@@@@@@@@@@o",
"@o@@@@@@@@@@@@@@@@@@*          ******@@@@@@@@@@@@@@@@@@@@@o@",
"o@@@@@@@@@@@@@@@@@@@@*  *  *  ****@@@@@@@@@@@@@@@@@@@@@@@@@o",
"o@@@@@@@@@@@@@@@@@@@@@***         *@@@@@@@@@@@@@@@@@@@@@@@@o",
"@o@@@@@@@@@@@@@@@@@@@@@* %%%%%%%%% *@@@@@@@@@@@@@@@@@@@@@@o@",
"o@@@@@@@@@@@@@@@@@@@@@@*.&&&&&&&&&.*@@@@@@@@@@@@@@@@@@@@@@@o",
"o@@@@@@@@@@@@@@@@@@@****.&&&&&&&&&.*@***@@@@@@@@@@@@@@@@@@@o",
"@o@@@@@@@@@@@@@@@@@*   **.&&&&&&&&.**...*@@@@@@@@@@@@@@@@@o@",
"o@@@@@@@@@@@@@@@@@*  XX * %%%%%%%% *.&&..*@@@@@@@@@@@@@@@@@o",
"o@@@@@@@@@@@@@@@@@* XXX * %%%%%%%% *.&&&.*@@@@@@@@@@@@@@@@@o",
"@o@@@@@@@@@@@@@@@@*  X  *          *  &  *@@@@@@@@@@@@@@@@o@",
"o@@@@@@@@@@@@@@@@@@*   *@*        *@*   *@@@@@@@@@@@@@@@@@@o",
"o@@@@@@@@@@@@@@@@@@@***@@**********@@***@@@@@@@@@@@@@@@@@@@o",
"@o@@@@@@@@@@@@@@@@@@@@@@*  *@@@@*..*@@@@@@@@@@@@@@@@@@@@@@o@",
"o@@@@@@@@@@@@@@@@@@@@@@* XX *@@*.&&.*@@@@@@@@@@@@@@@@@@@@@@o",
"o@@@@@@@@@@@@@@@@@@@@@@*    *@@*    *@@@@@@@@@@@@@@@@@@@@@@o",
"@o@@@@@@@@@@@@@@@@@@@@@*    *@@*    *@@@@@@@@@@@@@@@@@@@@@o@",
"o@@@@@@@@@@@@@@@@@@@@@@@****@@@@****@@@@@@@@@@@@@@@@@@@@@@@o",
"o@@@@@@@@@@@@@@@@@@@@@@@@@@@@@@@@@@@@@@@@@@@@@@@@@@@@@@@@@@o",
"@o@@@@@@@@@@@@@@@@@@@@@@@@@@@@@@@@@@@@@@@@@@@@@@@@@@@@@@@@o@",
"o@@@@@@@@@@@@@@@@@@@@@@@@@@@@@@@@@@@@@@@@@@@@@@@@@@@@@@@@@@o",
"o@@@@@@@@@@@@@@@@@@@@@@@@@@@@@@@@@@@@@@@@@@@@@@@@@@@@@@@@@@o",
"@o@@@@@@@@@@@@@@@@@@@@@@@@@@@@@@@@@@@@@@@@@@@@@@@@@@@@@@@@o@",
"o@@@@@@@@@@@@@@@@@@@@@@@@@@@@@@@@@@@@@@@@@@@@@@@@@@@@@@@@@@o",
"o@@@@@@@@@@@@@@@@@@@@@@@@@@@@@@@@@@@@@@@@@@@@@@@@@@@@@@@@@@o",
"@o@@@@@@@@@@@@@@@@@@@@@@@@@@@@@@@@@@@@@@@@@@@@@@@@@@@@@@@@o@",
"o@@@@@@@@@@@@@@@@@@@@@@@@@@@@@@@@@@@@@@@@@@@@@@@@@@@@@@@@@@o",
"o@@@@@@@@@@@@@@@@@@@@@@@@@@@@@@@@@@@@@@@@@@@@@@@@@@@@@@@@@@o",
"o##@@##@@##@@##@@##@@##@@##@@##@@##@@##@@##@@##@@##@@##@@##o",
"oOO##OO##OO##OO##OO##OO##OO##OO##OO##OO##OO##OO##OO##OO##OOo",
"oOOOOOOOOOOOOOOOOOOOOOOOOOOOOOOOOOOOOOOOOOOOOOOOOOOOOOOOOOOo"
};
