/* XPM */
static char *_e7ba666c59147d5a1a4f182611cf8853xNyzZ7S8NhxV1tQ[] = {
/* columns rows colors chars-per-pixel */
"60 60 12 1 ",
"  c #1A0A09",
". c #231513",
"X c #281B19",
"o c #2D201E",
"O c #372828",
"+ c #42322E",
"@ c #5B4338",
"# c #2A594F",
"$ c #3B7D4F",
"% c #715F49",
"& c #63AB3F",
"* c #A4C443",
/* pixels */
"######################## ###################################",
"#&&&&&&#&&&&#&&&&&&#&&& + #&&#&&&&&&&#&&&&&&&#&&&&&&#&&&&&&#",
"#&&&&&&&&&&&&&&&&&&&&&& O &&&&&&&&& &&&&&&&&&&&&&&&&&&&&&&&#",
"&#&&&&&&&&&&&&&&& &&&& + &&&&&&&&& % &&&&&&&& &&&&&&&&&&&&#&",
"#&&&&&&&&&&&&&&& % &&& O &&&&&&&&& @ &&&&&&& + &&&&&&&&&&&&#",
"#&&&&&&&&&&&&&&& @ && + &&&&&&&&&& @ && &&&& O &&&&&&&&&&&&#",
"&#&&&&&&&&&&&&&& + && O &&&&&&&&& %+ & @ && @ &&&&&&&&&&&&#&",
"#&&&&&&&&&&&&&&&& +  @ &&&&&&&&&& % & @ &&& + &&&&&&&&&&&&&#",
"#&&&&&&&&&&&&& && @..+ &&&& &&&&& @. @ &&&& O &&&&&&&&&&&&&#",
"&#&&&&&&&&&&& O & @..O &&& @ &&&& @.@ &&&& @ &&&&&&&&&&&&&#&",
"#&&&&&&&&&&&& O & +.+ &&&&& % && +@.+ & && + &&&&&&&&&&&&&&#",
"#&&&&&&&&&  & o & +O@ &&&&& @ && @.@ & % & O &&&&&&&&&&&&&&#",
"&#&&&&&&& oO ..O  +O+ && &&& % & %.+ & @. + &&&&&&&&&&&&&&#&",
"#&&&&&&&&&  oo.O & ++ & + && @ & %@ && +..O &&&&&&&&&&&&&&&#",
"#&&&&&&&&&&&  oo & @ &&& + & @% .%+ && O.+ &&&&&&&&&&&&&&&&#",
"&#&&&&&&&&&&&& oO .@ && & @ & @ .@ &&&& @O &&&&&&&&&&&&&&&#&",
"#&&&&&&&&&&&&&& oO.+@  o .+ & +%.@ &&&& + &&&&&&&&   &&&&&&#",
"#&&&&&&&&&&&&&&& ooO@ & o.O@ & @@@ &&& @O &&      ++O &&&&&#",
"&#&&&&&&&&&&&&&&& oO+ & O.O@ & +%+ && @+ &  +@@+OO   &&&&&#&",
"#&&&&&&&&&&&&&& & oo+ & O.O+ & +%+ && +O. ++OO    &&&&&&&&&#",
"#& &&&&&&&&&&& @ & o+o %Oo.O && %+ & @O.+O    &&&&&&&&&&&&&#",
"& + &&&&&&& &&& % .oO@o@Oo..@ & @ && +O+  & &&&&&&&&&&&&&&#&",
"#& + &&&&& @  && %..o+o+%O..@ & @ & +O  && @ &&&&&&&&&&&&  #",
"#&& + &&&&& @% && %..Oo.@O..+. @@ & + &&& @ && &&&& &&&& @+ ",
"&#& O@ &&&&&  %  .@%.o+.+%o.+O.%@. +O && @ && o &  @ && @  &",
"#&&& O@ &&&&&& @%..@..O.+@O.O+.%@..+O & %@ & o & %@ &  @ &&#",
"#&&&& O@   &&&&  @@%@.o+.@O..+.%@..+ & %@ & o.. %    @+ &&&#",
"&#&&&& O+@@  &&&&  +@..O++%..+.@@.+O & @ & o..%@ & @+O &&&#&",
"#&&&&&& O+++@  &&&& +%.oO+@..O+@+.+ & %@. ..%@    +O  &&&&&#",
"#&&&&& ....+++@   && +%.oO+%.O+%+.O & @@@%%@  & @+O &&&&&&&#",
"&#&&  O+@@+OOOO+++  ..+@oO+@%O+%++O. %@ooo  &  ++... &&&&&#&",
"#&& O+          OO++O..+@oO+@++@+O.+%@oOo &  @+OO++@+     &#",
"#& O  &&&&&&&&&& ...O@@%%%@O+@+@OO+@@oOoo. @+O       +O@@+ #",
"&#& &&&&&&&&&  .@%%@@+++++@@%+++O+%@+Oo..@+OO &&&&&&&     #&",
"#&&&&&&&&&&  @@+   .....OOO+@@+++@@Oo..@+O....     &&&&&&&&#",
"#&&&&&&&&& @+   & .oooooo++OO+++@@O++++OOoooooooooo &&&&&&&#",
"&#&&&&&&&&&  &&  oo....+O%%@@@@++++@@@@%%.....o    &&&&&&&#&",
"#&&&&&&&&&&&&& oo....O%%@@@@+OO+@@oO+O..+@%%.. &&&&&&&&&&&&#",
"#&&&&&&&&&&&&&& ...%@@@@@oo+OO++o+@.O+O..  +@%. &&&&&&&&&&&#",
"&#&&&&&&&&&&&& ..%@@OO@.o.+Ooo+oo.+@.O++ &&  +@%  &&&&&&&&#&",
"#&&&&&&&&&    %%@++O.@.o.+O.o+OooO.+@. O+  &&  +@% &&&&&&&&#",
"#&&&&&&&& %%@@+.OOO.@.o.+O.o.@O.oO. + & O++  &&   &&&&&&&&&#",
"&#&&&&&&&&   ..++ ..@.o.+..o.+...o & @ & O+++ &&&&&&&&&&&&#&",
"#&&&&&&&&&&&& @+ & @.o +..o..O...o & + && +. + &&&&&&&&&&&&#",
"#&&&&&       @+O && o & ..o.+O...oO & % & + &  &&&&&&&&&&&&#",
"&#&&  OO++@@+++o&&& o && .o.@O....o & @% .O &&&&&&&&&&&&&&#&",
"#&&&&    ..+ .O && o &&& o..@.....oO  @@@@..   &&&&&&&&&&&&#",
"#&&&&&&&& + & O && o &&& o.X+.X..X.o  %.++@@@%% &&&&&&&&&&&#",
"&#&&&&&&& O & O && o &&& o.oOoXXXX. & %. ...   &&&&&&&&&&&#&",
"#&&&&&&& O &&& && o &&& X.XoXooXX.X & @ & O &&&&&&&&&&&&&&&#",
"#&&&&&&&& &&&&&&& o &&$ XXooXooXX.X  @ &&& &&&&&&&&&&&&&&&&#",
"&#&&&&&&&&&&&&&&&& &&$ XXXoXooOoX.X & &&&&&&&&&&&&&&&&&&&&#&",
"#&&&&&&&&&&&&&&&&&&&$$ XXoooooOoo.X $$&&&&&&&&&&&&&&&&&&&&&#",
"#&&&&&&&&&&&&&&&&&$$## o.ooOoOOOo.o ##$&&&&&&&&&&&&&&&&&&&&#",
"&#&&&&&&&&&&&&&&$$$$# X.ooOOOOOOoo.X #$$&&&&&&&&&&&&&&&&&&#&",
"#&&&&&&&&&&&&&&&$#### o.oOOOOOOOoOO. ##$$&&&&&&&&&&&&&&&&&&#",
"#&&&&&&&&&&&&&&$$#   oooOOO+OOO@+O++@ ##$&&&&&&&&&&&&&&&&&&#",
"#**&&**&&**&&*$$########################$$*&&**&&**&&**&&**#",
"#$$**$$**$$**$$$####################$$$$$$$**$$**$$**$$**$$#",
"#$$$$$$$$$$$$$$$$$$$$$$$$$$$$$$$$$$$$$$$$$$$$$$$$$$$$$$$$$$#"
};
